<svg width="136" height="43" viewBox="0 0 136 43" fill="none" xmlns="http://www.w3.org/2000/svg">
<path d="M12.024 27.88C11.864 27.88 11.72 27.784 11.592 27.592C11.496 27.4 11.528 27.224 11.688 27.064C13.864 24.696 16.104 22.552 18.408 20.632C20.712 18.68 22.888 16.968 24.936 15.496C27.048 13.96 28.936 12.648 30.6 11.56C32.296 10.44 33.592 9.544 34.488 8.872C34.712 8.712 35.048 8.44 35.496 8.056C35.944 7.64 36.408 7.176 36.888 6.664C37.4 6.152 37.832 5.64 38.184 5.128C38.536 4.616 38.712 4.168 38.712 3.784C38.712 3.432 38.504 3.16 38.088 2.968C37.672 2.776 36.936 2.728 35.88 2.824C35.56 2.856 35.224 2.888 34.872 2.92C34.552 2.92 34.216 2.92 33.864 2.92C32.424 2.92 30.968 2.808 29.496 2.584C28.056 2.36 26.616 2.152 25.176 1.96C23.736 1.736 22.28 1.624 20.808 1.624C20.104 1.624 19.416 1.656 18.744 1.72C18.072 1.784 17.4 1.896 16.728 2.056C14.104 2.664 12.088 3.8 10.68 5.464C9.304 7.096 8.616 8.824 8.616 10.648C8.616 12.568 9.336 14.296 10.776 15.832C10.872 15.928 10.92 16.04 10.92 16.168C10.92 16.36 10.824 16.52 10.632 16.648C10.44 16.744 10.264 16.696 10.104 16.504C9.272 15.64 8.648 14.712 8.232 13.72C7.848 12.696 7.656 11.672 7.656 10.648C7.656 9.272 7.992 7.944 8.664 6.664C9.368 5.352 10.376 4.216 11.688 3.256C13.032 2.264 14.648 1.544 16.536 1.096C17.24 0.935999 17.928 0.823998 18.6 0.759997C19.304 0.663999 19.992 0.615999 20.664 0.615999C22.136 0.615999 23.592 0.727999 25.032 0.951998C26.472 1.176 27.928 1.4 29.4 1.624C30.872 1.848 32.344 1.96 33.816 1.96C34.136 1.96 34.456 1.96 34.776 1.96C35.128 1.928 35.464 1.896 35.784 1.864C35.944 1.832 36.104 1.816 36.264 1.816C36.424 1.816 36.568 1.816 36.696 1.816C37.592 1.816 38.312 1.976 38.856 2.296C39.4 2.584 39.672 3.064 39.672 3.736C39.672 4.504 39.272 5.4 38.472 6.424C37.672 7.448 36.536 8.52 35.064 9.64C34.168 10.312 32.872 11.208 31.176 12.328C29.512 13.416 27.624 14.728 25.512 16.264C23.464 17.736 21.288 19.432 18.984 21.352C16.712 23.272 14.52 25.384 12.408 27.688C12.312 27.816 12.184 27.88 12.024 27.88ZM13.224 15.928C13.096 15.928 12.984 15.864 12.888 15.736C11.256 13.656 10.44 11.688 10.44 9.832C10.44 8.488 10.92 7.304 11.88 6.28C12.84 5.256 14.312 4.504 16.296 4.024C17.032 3.864 17.736 3.752 18.408 3.688C19.112 3.592 19.784 3.544 20.424 3.544C21.896 3.544 23.32 3.656 24.696 3.88C26.072 4.104 27.448 4.344 28.824 4.6C30.2 4.824 31.608 4.936 33.048 4.936C33.304 4.936 33.576 4.936 33.864 4.936C34.152 4.904 34.424 4.888 34.68 4.888H34.728C35.048 4.888 35.208 5.048 35.208 5.368C35.208 5.688 35.064 5.848 34.776 5.848C34.488 5.88 34.2 5.912 33.912 5.944C33.656 5.944 33.384 5.944 33.096 5.944C31.656 5.944 30.216 5.832 28.776 5.608C27.368 5.352 25.944 5.112 24.504 4.888C23.096 4.632 21.672 4.504 20.232 4.504C19.016 4.504 17.784 4.648 16.536 4.936C14.808 5.352 13.512 5.992 12.648 6.856C11.816 7.688 11.4 8.696 11.4 9.88C11.4 11.448 12.152 13.208 13.656 15.16C13.72 15.224 13.752 15.32 13.752 15.448C13.752 15.768 13.576 15.928 13.224 15.928ZM5.88 28.168C5.72 28.168 5.576 28.088 5.448 27.928C5.352 27.736 5.384 27.544 5.544 27.352C7.752 25.112 10.2 22.856 12.888 20.584C15.576 18.28 18.344 16.072 21.192 13.96C24.04 11.816 26.792 9.864 29.448 8.104C29.576 8.04 29.672 8.008 29.736 8.008C30.024 8.008 30.168 8.168 30.168 8.488C30.168 8.68 30.104 8.824 29.976 8.92C29.976 8.92 29.608 9.176 28.872 9.688C28.136 10.168 27.128 10.872 25.848 11.8C24.568 12.696 23.112 13.768 21.48 15.016C19.912 16.2 18.248 17.496 16.488 18.904C14.728 20.312 12.968 21.784 11.208 23.32C9.448 24.856 7.784 26.424 6.216 28.024C6.12 28.12 6.008 28.168 5.88 28.168ZM28.536 38.152C27.032 38.152 25.608 37.944 24.264 37.528C22.952 37.112 21.672 36.6 20.424 35.992C19.176 35.384 17.928 34.776 16.68 34.168C15.432 33.56 14.12 33.048 12.744 32.632C11.4 32.216 9.96 32.008 8.424 32.008C7.24 32.008 6.216 32.2 5.352 32.584C4.52 32.968 4.104 33.528 4.104 34.264C4.104 34.712 4.28 35.192 4.632 35.704C5.016 36.184 5.576 36.552 6.312 36.808C6.536 36.904 6.648 37.048 6.648 37.24C6.648 37.368 6.584 37.48 6.456 37.576C6.328 37.704 6.168 37.736 5.976 37.672C5.144 37.352 4.472 36.888 3.96 36.28C3.448 35.64 3.192 34.968 3.192 34.264C3.192 33.336 3.624 32.584 4.488 32.008C5.352 31.4 6.648 31.096 8.376 31.096C10.04 31.096 11.576 31.304 12.984 31.72C14.392 32.136 15.72 32.648 16.968 33.256C18.216 33.832 19.448 34.424 20.664 35.032C21.88 35.64 23.128 36.152 24.408 36.568C25.688 36.984 27.064 37.192 28.536 37.192C30.584 37.192 32.344 36.792 33.816 35.992C35.288 35.16 36.424 34.088 37.224 32.776C38.056 31.464 38.472 30.056 38.472 28.552C38.472 27.272 38.152 25.992 37.512 24.712C37.48 24.648 37.464 24.568 37.464 24.472C37.464 24.152 37.624 23.992 37.944 23.992C38.136 23.992 38.28 24.072 38.376 24.232C38.728 24.936 38.984 25.656 39.144 26.392C39.336 27.096 39.432 27.8 39.432 28.504C39.432 30.2 38.984 31.784 38.088 33.256C37.192 34.728 35.928 35.912 34.296 36.808C32.664 37.704 30.744 38.152 28.536 38.152ZM29.448 35.272C27.912 35.272 26.472 35.064 25.128 34.648C23.816 34.232 22.536 33.72 21.288 33.112C20.072 32.472 18.84 31.848 17.592 31.24C16.376 30.632 15.08 30.12 13.704 29.704C12.36 29.288 10.888 29.08 9.288 29.08C7.496 29.08 5.992 29.352 4.776 29.896C3.56 30.44 2.648 31.096 2.04 31.864C1.4 32.632 1.08 33.384 1.08 34.12V34.696C1.08 34.984 0.92 35.128 0.6 35.128C0.312 35.128 0.152 35 0.12 34.744C0.0879998 34.648 0.0719998 34.552 0.0719998 34.456C0.0719998 34.36 0.0719998 34.264 0.0719998 34.168C0.0719998 33.016 0.488 31.992 1.32 31.096C2.12 30.168 3.224 29.448 4.632 28.936C6.04 28.392 7.624 28.12 9.384 28.12C11.016 28.12 12.52 28.328 13.896 28.744C15.272 29.16 16.584 29.672 17.832 30.28C19.08 30.888 20.312 31.512 21.528 32.152C22.744 32.76 23.992 33.272 25.272 33.688C26.584 34.104 27.976 34.312 29.448 34.312C31.496 34.312 33.032 33.848 34.056 32.92C35.112 31.96 35.64 30.664 35.64 29.032C35.64 27.816 35.32 26.376 34.68 24.712C34.648 24.68 34.632 24.616 34.632 24.52C34.632 24.2 34.808 24.04 35.16 24.04C35.32 24.04 35.448 24.136 35.544 24.328C36.216 25.992 36.552 27.56 36.552 29.032C36.552 30.888 35.96 32.392 34.776 33.544C33.624 34.696 31.848 35.272 29.448 35.272ZM51.7683 28.504C51.5763 28.504 51.4163 28.424 51.2883 28.264C51.1923 28.104 51.2083 27.928 51.3363 27.736C52.2963 26.328 52.7763 24.968 52.7763 23.656C52.7763 22.728 52.4883 21.976 51.9123 21.4C51.3683 20.792 50.5363 20.488 49.4163 20.488C47.7523 20.488 46.1203 21.224 44.5203 22.696C42.9523 24.136 41.3363 25.944 39.6723 28.12C39.5763 28.216 39.4803 28.264 39.3843 28.264C39.2243 28.264 39.0963 28.168 39.0003 27.976C38.8723 27.784 38.8723 27.592 39.0003 27.4C40.0883 25.96 41.1763 24.648 42.2643 23.464C43.3523 22.28 44.4723 21.336 45.6243 20.632C46.8083 19.928 48.0403 19.576 49.3203 19.576C50.9203 19.576 52.0563 19.96 52.7283 20.728C53.4003 21.496 53.7363 22.424 53.7363 23.512C53.7363 24.312 53.5923 25.128 53.3043 25.96C53.0163 26.792 52.6163 27.576 52.1043 28.312C52.0083 28.44 51.8963 28.504 51.7683 28.504ZM43.1283 34.456C42.4563 34.456 41.9283 34.232 41.5443 33.784C41.1923 33.304 41.0163 32.696 41.0163 31.96C41.0163 31 41.3043 29.944 41.8803 28.792C42.4563 27.64 43.1923 26.552 44.0883 25.528C45.0163 24.472 45.9763 23.608 46.9683 22.936C47.9603 22.264 48.8563 21.928 49.6563 21.928C50.1043 21.928 50.3283 22.088 50.3283 22.408C50.3283 22.536 50.2803 22.664 50.1843 22.792C50.0883 22.888 49.9603 22.92 49.8003 22.888C49.1283 22.824 48.3443 23.096 47.4483 23.704C46.5843 24.312 45.7363 25.096 44.9043 26.056C44.0723 27.016 43.3683 28.04 42.7923 29.128C42.2483 30.184 41.9763 31.144 41.9763 32.008C41.9763 32.424 42.0563 32.776 42.2163 33.064C42.3763 33.352 42.6803 33.496 43.1283 33.496C43.6403 33.496 44.1843 33.336 44.7603 33.016C45.3363 32.664 45.8643 32.248 46.3443 31.768C46.8243 31.288 47.1763 30.84 47.4003 30.424C47.4963 30.264 47.6243 30.184 47.7843 30.184C47.9443 30.184 48.0883 30.264 48.2163 30.424C48.3443 30.552 48.3443 30.712 48.2163 30.904C47.9283 31.384 47.5123 31.912 46.9683 32.488C46.4243 33.032 45.8163 33.496 45.1443 33.88C44.4723 34.264 43.8003 34.456 43.1283 34.456ZM51.1923 30.616C50.1363 30.616 49.2243 30.296 48.4563 29.656C47.6883 29.016 47.3043 28.152 47.3043 27.064C47.3043 26.68 47.3523 26.28 47.4483 25.864C47.5763 25.416 47.7523 24.952 47.9763 24.472C48.0723 24.28 48.2163 24.184 48.4083 24.184C48.5683 24.184 48.6963 24.248 48.7923 24.376C48.9203 24.504 48.9363 24.664 48.8403 24.856C48.6483 25.24 48.5043 25.608 48.4083 25.96C48.3443 26.312 48.3123 26.648 48.3123 26.968C48.3123 27.832 48.6003 28.504 49.1763 28.984C49.7523 29.432 50.4403 29.656 51.2403 29.656C51.9443 29.656 52.6643 29.48 53.4003 29.128C54.1363 28.776 54.8083 28.216 55.4163 27.448C55.5123 27.32 55.6243 27.256 55.7523 27.256C55.9123 27.256 56.0563 27.352 56.1843 27.544C56.3123 27.704 56.3123 27.864 56.1843 28.024C55.4483 28.92 54.6323 29.576 53.7363 29.992C52.8723 30.408 52.0243 30.616 51.1923 30.616ZM43.0323 37.48C41.6563 37.48 40.5043 37.032 39.5763 36.136C38.6483 35.208 38.2483 34.12 38.3763 32.872C38.3763 32.552 38.5363 32.392 38.8563 32.392C38.9843 32.392 39.1123 32.456 39.2403 32.584C39.3363 32.68 39.3683 32.808 39.3363 32.968C39.2723 33.8 39.5923 34.616 40.2963 35.416C41.0323 36.184 41.9603 36.568 43.0803 36.568C43.8163 36.568 44.6003 36.344 45.4323 35.896C46.2643 35.448 47.0963 34.696 47.9283 33.64C47.9283 33.64 48.0243 33.512 48.2163 33.256C48.4403 33 48.6803 32.728 48.9363 32.44C49.1923 32.12 49.3683 31.864 49.4643 31.672C49.5603 31.48 49.6883 31.384 49.8483 31.384C50.0083 31.384 50.1363 31.464 50.2323 31.624C50.3603 31.752 50.3763 31.912 50.2803 32.104C50.0883 32.488 49.8323 32.856 49.5123 33.208C49.1923 33.56 48.9043 33.912 48.6483 34.264C47.7523 35.416 46.8083 36.248 45.8163 36.76C44.8563 37.24 43.9283 37.48 43.0323 37.48ZM66.9894 18.568C66.7974 18.568 66.6374 18.488 66.5094 18.328C66.4134 18.136 66.4454 17.944 66.6054 17.752L70.0134 14.056C70.1734 13.896 70.2534 13.688 70.2534 13.432C70.2534 13.144 70.1094 12.888 69.8214 12.664C69.5654 12.44 69.2614 12.328 68.9094 12.328C68.5894 12.328 68.2534 12.472 67.9014 12.76C67.5174 13.08 66.9254 13.688 66.1254 14.584C65.3254 15.48 64.4134 16.552 63.3894 17.8C63.3894 17.832 63.3414 17.88 63.2454 17.944C63.1494 17.976 63.0854 17.992 63.0534 17.992H59.2614C58.9414 17.992 58.7814 17.832 58.7814 17.512C58.7814 17.192 58.9414 17.032 59.2614 17.032H62.8134C63.7734 15.816 64.6534 14.776 65.4534 13.912C66.2534 13.016 66.8454 12.392 67.2294 12.04C67.7094 11.592 68.2694 11.368 68.9094 11.368C69.5494 11.368 70.0934 11.576 70.5414 11.992C70.9894 12.376 71.2134 12.84 71.2134 13.384C71.2134 13.864 71.0534 14.28 70.7334 14.632C70.6694 14.728 70.4454 14.984 70.0614 15.4C69.7094 15.816 69.2774 16.296 68.7654 16.84C68.2534 17.384 67.7734 17.912 67.3254 18.424C67.2294 18.52 67.1174 18.568 66.9894 18.568ZM55.4214 28.216C55.1334 28.216 54.9894 28.072 54.9894 27.784C54.9894 27.688 55.0694 27.528 55.2294 27.304C56.0614 26.28 57.0214 25.064 58.1094 23.656C59.1974 22.248 60.2854 20.776 61.3734 19.24C61.4694 19.112 61.5814 19.048 61.7094 19.048C61.9014 19.048 62.0454 19.144 62.1414 19.336C62.2694 19.496 62.2694 19.656 62.1414 19.816C61.0534 21.352 59.9654 22.84 58.8774 24.28C57.7894 25.688 56.7814 26.936 55.8534 28.024C55.7254 28.152 55.5814 28.216 55.4214 28.216ZM60.7974 34.168C59.6134 34.168 58.7334 33.704 58.1574 32.776C58.0294 32.52 57.9174 32.264 57.8214 32.008C57.7254 31.72 57.6774 31.416 57.6774 31.096C57.6774 30.552 57.8054 29.928 58.0614 29.224C58.3494 28.488 58.7974 27.704 59.4054 26.872C59.7574 26.36 60.2694 25.704 60.9414 24.904C61.6134 24.072 62.3174 23.208 63.0534 22.312C63.8214 21.384 64.4774 20.536 65.0214 19.768C65.0214 19.736 65.0694 19.704 65.1654 19.672C65.2934 19.608 65.3734 19.576 65.4054 19.576H69.5334C69.8534 19.576 70.0134 19.736 70.0134 20.056C70.0134 20.376 69.8534 20.536 69.5334 20.536H65.6454C65.1014 21.304 64.4614 22.136 63.7254 23.032C63.0214 23.896 62.3334 24.728 61.6614 25.528C61.0214 26.328 60.5254 26.968 60.1734 27.448C59.6294 28.248 59.2454 28.952 59.0214 29.56C58.7974 30.136 58.6854 30.648 58.6854 31.096C58.6854 31.576 58.7814 31.96 58.9734 32.248C59.3574 32.888 59.9654 33.208 60.7974 33.208C61.6294 33.208 62.4774 32.936 63.3414 32.392C64.2374 31.816 65.1174 31.096 65.9814 30.232C66.8454 29.336 67.6294 28.408 68.3334 27.448C68.4294 27.32 68.5574 27.256 68.7174 27.256C68.8774 27.256 69.0214 27.336 69.1494 27.496C69.2774 27.656 69.2614 27.832 69.1014 28.024C67.9174 29.688 66.5734 31.128 65.0694 32.344C63.5654 33.56 62.1414 34.168 60.7974 34.168ZM59.2614 37.048C58.0134 37.048 57.0054 36.696 56.2374 35.992C55.5014 35.256 55.1654 34.216 55.2294 32.872C55.2294 32.584 55.3894 32.44 55.7094 32.44C55.8374 32.44 55.9494 32.488 56.0454 32.584C56.1734 32.648 56.2214 32.76 56.1894 32.92C56.1574 33.816 56.4134 34.584 56.9574 35.224C57.5334 35.832 58.3654 36.136 59.4534 36.136C60.2214 36.136 61.1014 35.944 62.0934 35.56C63.1174 35.144 64.2214 34.488 65.4054 33.592C65.4694 33.528 65.5654 33.496 65.6934 33.496C66.0134 33.496 66.1734 33.656 66.1734 33.976C66.1734 34.136 66.1094 34.264 65.9814 34.36C64.7974 35.256 63.6134 35.928 62.4294 36.376C61.2774 36.824 60.2214 37.048 59.2614 37.048ZM74.415 29.608C73.839 29.608 73.343 29.48 72.927 29.224C72.735 29.128 72.639 29 72.639 28.84C72.639 28.68 72.703 28.552 72.831 28.456C72.991 28.328 73.167 28.312 73.359 28.408C73.743 28.568 74.095 28.648 74.415 28.648C75.087 28.648 75.823 28.456 76.623 28.072C77.423 27.656 78.191 27.128 78.927 26.488C79.663 25.848 80.255 25.16 80.703 24.424C81.183 23.688 81.423 22.984 81.423 22.312C81.423 21 80.751 20.344 79.407 20.344C77.903 20.344 76.495 20.744 75.183 21.544C73.903 22.312 72.719 23.288 71.631 24.472C70.575 25.624 69.631 26.808 68.799 28.024C68.703 28.184 68.575 28.264 68.415 28.264C68.255 28.264 68.127 28.184 68.031 28.024C67.903 27.864 67.903 27.688 68.031 27.496C68.863 26.28 69.839 25.048 70.959 23.8C72.079 22.552 73.343 21.512 74.751 20.68C76.191 19.816 77.743 19.384 79.407 19.384C80.271 19.384 80.975 19.64 81.519 20.152C82.095 20.664 82.383 21.384 82.383 22.312C82.383 23.176 82.111 24.04 81.567 24.904C81.055 25.736 80.383 26.52 79.551 27.256C78.751 27.96 77.887 28.536 76.959 28.984C76.031 29.4 75.183 29.608 74.415 29.608ZM73.311 34.072C72.447 34.072 71.647 33.848 70.911 33.4C70.207 32.952 69.855 32.184 69.855 31.096C69.855 30.2 70.175 29.24 70.815 28.216C71.487 27.192 72.303 26.216 73.263 25.288C74.255 24.328 75.263 23.496 76.287 22.792C77.311 22.088 78.191 21.624 78.927 21.4C78.959 21.4 78.975 21.4 78.975 21.4C79.007 21.368 79.039 21.352 79.071 21.352C79.391 21.352 79.551 21.528 79.551 21.88C79.551 22.072 79.439 22.216 79.215 22.312C78.511 22.536 77.679 22.984 76.719 23.656C75.791 24.328 74.863 25.112 73.935 26.008C73.039 26.872 72.287 27.752 71.679 28.648C71.103 29.544 70.815 30.36 70.815 31.096C70.815 31.8 71.039 32.312 71.487 32.632C71.967 32.952 72.575 33.112 73.311 33.112C75.199 33.112 77.103 32.616 79.023 31.624C80.975 30.6 82.639 29.192 84.015 27.4C84.111 27.272 84.223 27.208 84.351 27.208C84.543 27.208 84.687 27.304 84.783 27.496C84.911 27.656 84.895 27.832 84.735 28.024C83.295 29.88 81.535 31.352 79.455 32.44C77.407 33.528 75.359 34.072 73.311 34.072ZM73.071 36.952C72.239 36.952 71.391 36.824 70.527 36.568C69.663 36.312 68.943 35.896 68.367 35.32C67.759 34.712 67.455 33.912 67.455 32.92C67.455 32.568 67.615 32.392 67.935 32.392C68.255 32.392 68.415 32.568 68.415 32.92C68.415 33.528 68.527 34.008 68.751 34.36C69.007 34.712 69.439 35.032 70.047 35.32C70.527 35.544 71.039 35.72 71.583 35.848C72.159 35.944 72.655 35.992 73.071 35.992C74.255 35.992 75.407 35.768 76.527 35.32C77.679 34.872 78.735 34.296 79.695 33.592C79.759 33.528 79.855 33.496 79.983 33.496C80.303 33.496 80.463 33.656 80.463 33.976C80.463 34.136 80.399 34.264 80.271 34.36C79.247 35.128 78.111 35.752 76.863 36.232C75.647 36.712 74.383 36.952 73.071 36.952ZM84.0325 28.264C83.8725 28.264 83.7445 28.168 83.6485 27.976C83.5205 27.784 83.5205 27.608 83.6485 27.448C84.2885 26.712 84.8805 25.944 85.4245 25.144C85.9685 24.344 86.4965 23.544 87.0085 22.744C87.8725 21.464 88.8165 20.088 89.8405 18.616C90.8965 17.144 92.0165 15.688 93.2005 14.248C94.4165 12.808 95.6645 11.496 96.9445 10.312C98.2245 9.096 99.5205 8.12 100.833 7.384C101.953 6.776 102.929 6.472 103.761 6.472C104.593 6.472 105.217 6.744 105.633 7.288C106.081 7.8 106.305 8.472 106.305 9.304C106.305 9.688 106.257 10.088 106.161 10.504C106.097 10.888 105.969 11.304 105.777 11.752C105.681 11.976 105.313 12.472 104.673 13.24C104.065 13.976 103.297 14.888 102.369 15.976C101.441 17.032 100.449 18.136 99.3925 19.288C98.3685 20.44 97.3765 21.544 96.4165 22.6C95.4565 23.656 94.6245 24.536 93.9205 25.24C93.2485 25.944 92.8165 26.376 92.6245 26.536C92.5285 26.632 92.4325 26.68 92.3365 26.68C91.9845 26.68 91.8085 26.488 91.8085 26.104C91.8085 26.008 91.8725 25.896 92.0005 25.768C92.1925 25.608 92.6245 25.176 93.2965 24.472C93.9685 23.768 94.7845 22.904 95.7445 21.88C96.7045 20.856 97.6965 19.784 98.7205 18.664C99.7445 17.512 100.705 16.424 101.601 15.4C102.529 14.344 103.297 13.448 103.905 12.712C104.513 11.976 104.849 11.528 104.913 11.368C105.233 10.632 105.393 9.928 105.393 9.256C105.393 8.712 105.249 8.28 104.961 7.96C104.705 7.608 104.305 7.432 103.761 7.432C103.089 7.432 102.273 7.704 101.313 8.248C100.065 8.952 98.8165 9.896 97.5685 11.08C96.3205 12.232 95.1045 13.528 93.9205 14.968C92.7365 16.376 91.6325 17.8 90.6085 19.24C89.5845 20.68 88.6565 22.024 87.8245 23.272C87.2805 24.072 86.7365 24.888 86.1925 25.72C85.6485 26.552 85.0565 27.336 84.4165 28.072C84.3205 28.2 84.1925 28.264 84.0325 28.264ZM88.9765 34.024C87.9845 34.024 87.2805 33.816 86.8645 33.4C86.4805 32.984 86.2885 32.472 86.2885 31.864C86.2885 31.224 86.4325 30.536 86.7205 29.8C87.0405 29.032 87.3605 28.376 87.6805 27.832C88.1605 27 88.8165 26.008 89.6485 24.856C90.4805 23.704 91.3925 22.504 92.3845 21.256C93.4085 19.976 94.4325 18.744 95.4565 17.56C96.5125 16.376 97.5045 15.336 98.4325 14.44C99.3605 13.512 100.129 12.824 100.737 12.376C100.801 12.312 100.897 12.28 101.025 12.28C101.345 12.28 101.505 12.44 101.505 12.76C101.505 12.92 101.441 13.048 101.313 13.144C100.705 13.56 99.9525 14.216 99.0565 15.112C98.1605 16.008 97.2005 17.048 96.1765 18.232C95.1525 19.384 94.1285 20.584 93.1045 21.832C92.1125 23.08 91.2005 24.264 90.3685 25.384C89.5685 26.504 88.9445 27.48 88.4965 28.312C88.2725 28.728 88.0005 29.256 87.6805 29.896C87.3605 30.536 87.2005 31.128 87.2005 31.672C87.2005 32.088 87.3285 32.424 87.5845 32.68C87.8405 32.936 88.3045 33.064 88.9765 33.064C89.8405 33.064 90.8325 32.856 91.9525 32.44C93.1045 32.024 94.2725 31.4 95.4565 30.568C96.6405 29.704 97.7285 28.648 98.7205 27.4C98.8165 27.272 98.9285 27.208 99.0565 27.208C99.2485 27.208 99.3925 27.304 99.4885 27.496C99.6165 27.656 99.6005 27.832 99.4405 28.024C98.4165 29.336 97.2805 30.44 96.0325 31.336C94.7845 32.232 93.5365 32.904 92.2885 33.352C91.0725 33.8 89.9685 34.024 88.9765 34.024ZM88.5445 37C86.9445 37 85.5845 36.664 84.4645 35.992C83.3765 35.288 82.8325 34.264 82.8325 32.92C82.8325 32.568 82.9925 32.392 83.3125 32.392C83.6325 32.392 83.7925 32.568 83.7925 32.92C83.7925 33.816 84.2565 34.568 85.1845 35.176C86.1445 35.752 87.3605 36.04 88.8325 36.04C90.0485 36.04 91.3765 35.784 92.8165 35.272C94.2885 34.76 95.7285 33.912 97.1365 32.728C97.2005 32.664 97.2965 32.632 97.4245 32.632C97.7445 32.632 97.9045 32.792 97.9045 33.112C97.9045 33.272 97.8405 33.4 97.7125 33.496C96.3365 34.68 94.8325 35.56 93.2005 36.136C91.5685 36.712 90.0165 37 88.5445 37Z" fill="black"/>
<path d="M107.96 27.5246L99.1887 27.6312L100.2 18.9175L107.96 27.5246Z" stroke="#EB6440" stroke-width="0.5"/>
<path d="M107.901 27.4593L100.181 26.737L100.259 18.9829L107.901 27.4593Z" stroke="#EB6440" stroke-width="0.5"/>
<mask id="path-4-inside-1_73_184" fill="white">
<path d="M102.31 24.8174L102.642 24.2407L102.197 23.7463L102.848 23.8843L103.18 23.3077L103.25 23.9696L103.901 24.1076L103.293 24.3787L103.363 25.0406L102.918 24.5462L102.31 24.8174Z"/>
</mask>
<path d="M102.31 24.8174L101.443 24.3179L99.9063 26.9843L102.717 25.7307L102.31 24.8174ZM102.642 24.2407L103.509 24.7402L103.871 24.1107L103.385 23.5711L102.642 24.2407ZM102.197 23.7463L102.404 22.7681L99.393 22.1301L101.454 24.416L102.197 23.7463ZM102.848 23.8843L102.64 24.8626L103.351 25.0132L103.714 24.3838L102.848 23.8843ZM103.18 23.3077L104.175 23.2025L103.851 20.1419L102.314 22.8082L103.18 23.3077ZM103.25 23.9696L102.256 24.0748L102.332 24.7973L103.043 24.9479L103.25 23.9696ZM103.901 24.1076L104.309 25.0209L107.119 23.7672L104.109 23.1293L103.901 24.1076ZM103.293 24.3787L102.886 23.4654L102.223 23.7613L102.299 24.4839L103.293 24.3787ZM103.363 25.0406L102.621 25.7102L104.682 27.9961L104.358 24.9354L103.363 25.0406ZM102.918 24.5462L103.66 23.8766L103.174 23.337L102.51 23.633L102.918 24.5462ZM103.176 25.3168L103.509 24.7402L101.776 23.7413L101.443 24.3179L103.176 25.3168ZM103.385 23.5711L102.939 23.0767L101.454 24.416L101.9 24.9103L103.385 23.5711ZM101.989 24.7246L102.64 24.8626L103.055 22.906L102.404 22.7681L101.989 24.7246ZM103.714 24.3838L104.046 23.8071L102.314 22.8082L101.981 23.3849L103.714 24.3838ZM102.186 23.4128L102.256 24.0748L104.245 23.8644L104.175 23.2025L102.186 23.4128ZM103.043 24.9479L103.694 25.0858L104.109 23.1293L103.457 22.9913L103.043 24.9479ZM103.494 23.1943L102.886 23.4654L103.701 25.292L104.309 25.0209L103.494 23.1943ZM102.299 24.4839L102.369 25.1458L104.358 24.9354L104.288 24.2735L102.299 24.4839ZM104.106 24.371L103.66 23.8766L102.175 25.2159L102.621 25.7102L104.106 24.371ZM102.51 23.633L101.902 23.9041L102.717 25.7307L103.325 25.4595L102.51 23.633Z" fill="#EB6440" mask="url(#path-4-inside-1_73_184)"/>
<mask id="path-6-inside-2_73_184" fill="white">
<path d="M103.724 25.7013L103.973 25.2689L103.639 24.8981L104.127 25.0016L104.376 24.5691L104.429 25.0655L104.917 25.169L104.461 25.3723L104.514 25.8688L104.18 25.498L103.724 25.7013Z"/>
</mask>
<path d="M103.724 25.7013L102.857 25.2019L101.32 27.8682L104.131 26.6146L103.724 25.7013ZM103.973 25.2689L104.839 25.7683L105.202 25.1389L104.716 24.5992L103.973 25.2689ZM103.639 24.8981L103.846 23.9198L100.835 23.2818L102.896 25.5677L103.639 24.8981ZM104.127 25.0016L103.92 25.9798L104.631 26.1304L104.993 25.501L104.127 25.0016ZM104.376 24.5691L105.371 24.4639L105.047 21.4033L103.51 24.0696L104.376 24.5691ZM104.429 25.0655L103.434 25.1707L103.511 25.8932L104.222 26.0438L104.429 25.0655ZM104.917 25.169L105.325 26.0823L108.135 24.8287L105.125 24.1907L104.917 25.169ZM104.461 25.3723L104.054 24.459L103.39 24.755L103.467 25.4775L104.461 25.3723ZM104.514 25.8688L103.771 26.5384L105.832 28.8242L105.508 25.7636L104.514 25.8688ZM104.18 25.498L104.922 24.8284L104.436 24.2888L103.772 24.5847L104.18 25.498ZM104.59 26.2008L104.839 25.7683L103.107 24.7694L102.857 25.2019L104.59 26.2008ZM104.716 24.5992L104.381 24.2285L102.896 25.5677L103.23 25.9385L104.716 24.5992ZM103.431 25.8764L103.92 25.9798L104.334 24.0233L103.846 23.9198L103.431 25.8764ZM104.993 25.501L105.243 25.0685L103.51 24.0696L103.261 24.5021L104.993 25.501ZM103.382 24.6742L103.434 25.1707L105.423 24.9603L105.371 24.4639L103.382 24.6742ZM104.222 26.0438L104.71 26.1473L105.125 24.1907L104.636 24.0872L104.222 26.0438ZM104.51 24.2557L104.054 24.459L104.869 26.2856L105.325 26.0823L104.51 24.2557ZM103.467 25.4775L103.519 25.9739L105.508 25.7636L105.456 25.2672L103.467 25.4775ZM105.257 25.1992L104.922 24.8284L103.437 26.1676L103.771 26.5384L105.257 25.1992ZM103.772 24.5847L103.316 24.7881L104.131 26.6146L104.587 26.4113L103.772 24.5847Z" fill="#EB6440" mask="url(#path-6-inside-2_73_184)"/>
<mask id="path-8-inside-3_73_184" fill="white">
<path d="M101.577 23.32L101.826 22.8875L101.492 22.5167L101.98 22.6202L102.229 22.1877L102.282 22.6842L102.77 22.7876L102.314 22.991L102.367 23.4874L102.032 23.1167L101.577 23.32Z"/>
</mask>
<path d="M101.577 23.32L100.71 22.8205L99.173 25.4869L101.984 24.2333L101.577 23.32ZM101.826 22.8875L102.692 23.387L103.055 22.7575L102.569 22.2179L101.826 22.8875ZM101.492 22.5167L101.699 21.5385L98.688 20.9005L100.749 23.1863L101.492 22.5167ZM101.98 22.6202L101.773 23.5985L102.483 23.7491L102.846 23.1197L101.98 22.6202ZM102.229 22.1877L103.224 22.0826L102.9 19.0219L101.363 21.6883L102.229 22.1877ZM102.282 22.6842L101.287 22.7893L101.364 23.5118L102.074 23.6624L102.282 22.6842ZM102.77 22.7876L103.177 23.7009L105.988 22.4473L102.977 21.8094L102.77 22.7876ZM102.314 22.991L101.907 22.0777L101.243 22.3736L101.32 23.0961L102.314 22.991ZM102.367 23.4874L101.624 24.157L103.685 26.4429L103.361 23.3823L102.367 23.4874ZM102.032 23.1167L102.775 22.4471L102.289 21.9074L101.625 22.2034L102.032 23.1167ZM102.443 23.8194L102.692 23.387L100.959 22.3881L100.71 22.8205L102.443 23.8194ZM102.569 22.2179L102.234 21.8471L100.749 23.1863L101.083 23.5571L102.569 22.2179ZM101.284 23.495L101.773 23.5985L102.187 21.6419L101.699 21.5385L101.284 23.495ZM102.846 23.1197L103.096 22.6872L101.363 21.6883L101.114 22.1208L102.846 23.1197ZM101.235 22.2929L101.287 22.7893L103.276 22.579L103.224 22.0826L101.235 22.2929ZM102.074 23.6624L102.563 23.7659L102.977 21.8094L102.489 21.7059L102.074 23.6624ZM102.363 21.8744L101.907 22.0777L102.722 23.9043L103.177 23.7009L102.363 21.8744ZM101.32 23.0961L101.372 23.5926L103.361 23.3823L103.309 22.8858L101.32 23.0961ZM103.109 22.8178L102.775 22.4471L101.29 23.7863L101.624 24.157L103.109 22.8178ZM101.625 22.2034L101.169 22.4067L101.984 24.2333L102.44 24.0299L101.625 22.2034Z" fill="#EB6440" mask="url(#path-8-inside-3_73_184)"/>
</svg>
